HIERARCHY
ROOT Hips
{
  OFFSET -33.9132 29.2015 117.021
  CHANNELS 6 Xposition Yposition Zposition Zrotation Xrotation Yrotation
  JOINT LeftUpLeg
  {
    OFFSET 8.64259 1.95398 -2.38835
    CHANNELS 3 Zrotation Xrotation Yrotation
    JOINT LeftLeg
    {
      OFFSET 43.7702 0 0
      CHANNELS 3 Zrotation Xrotation Yrotation
      JOINT LeftFoot
      {
        OFFSET 40.6238 0 0
        CHANNELS 3 Zrotation Xrotation Yrotation
        JOINT LeftToeBase
        {
          OFFSET 12.7242 0 0
          CHANNELS 3 Zrotation Xrotation Yrotation
          End Site
          {
            OFFSET 0 0 0
          }
        }
      }
    }
  }
  JOINT RightUpLeg
  {
    OFFSET -8.2249 1.95398 -2.59336
    CHANNELS 3 Zrotation Xrotation Yrotation
    JOINT RightLeg
    {
      OFFSET 43.5653 0 0
      CHANNELS 3 Zrotation Xrotation Yrotation
      JOINT RightFoot
      {
        OFFSET 40.6238 0 0
        CHANNELS 3 Zrotation Xrotation Yrotation
        JOINT RightToeBase
        {
          OFFSET 12.7242 0 0
          CHANNELS 3 Zrotation Xrotation Yrotation
          End Site
          {
            OFFSET 0 0 0
          }
        }
      }
    }
  }
  JOINT Spine
  {
    OFFSET 0.165834 0.87714 6.61349
    CHANNELS 3 Zrotation Xrotation Yrotation
    JOINT Spine1
    {
      OFFSET 7.38963 1.71661e-005 0
      CHANNELS 3 Zrotation Xrotation Yrotation
      JOINT Spine2
      {
        OFFSET 11.9445 1.14441e-005 0
        CHANNELS 3 Zrotation Xrotation Yrotation
        JOINT Spine3
        {
          OFFSET 14.7254 4.19617e-005 0
          CHANNELS 3 Zrotation Xrotation Yrotation
          JOINT Spine4
          {
            OFFSET 10.9679 0 0
            CHANNELS 3 Zrotation Xrotation Yrotation
            JOINT RightShoulder
            {
              OFFSET 2.46616 -1.6653 3.69651
              CHANNELS 3 Zrotation Xrotation Yrotation
              JOINT RightArm
              {
                OFFSET 13.0012 0 0
                CHANNELS 3 Zrotation Xrotation Yrotation
                JOINT RightForeArm
                {
                  OFFSET 28.7848 1.62311e-005 0
                  CHANNELS 3 Zrotation Xrotation Yrotation
                  JOINT RightHand
                  {
                    OFFSET 26.5688 1.62095e-005 0
                    CHANNELS 3 Zrotation Xrotation Yrotation
                    End Site
                    {
                      OFFSET 0 0 0
                    }
                  }
                }
              }
            }
            JOINT LeftShoulder
            {
              OFFSET 2.38034 -1.29275 -3.7523
              CHANNELS 3 Zrotation Xrotation Yrotation
              JOINT LeftArm
              {
                OFFSET 16.3182 6.07031e-005 0
                CHANNELS 3 Zrotation Xrotation Yrotation
                JOINT LeftForeArm
                {
                  OFFSET 27.0901 0 0
                  CHANNELS 3 Zrotation Xrotation Yrotation
                  JOINT LeftHand
                  {
                    OFFSET 24.5451 1.51738e-005 0
                    CHANNELS 3 Zrotation Xrotation Yrotation
                    End Site
                    {
                      OFFSET 0 0 0
                    }
                  }
                }
              }
            }
            JOINT Neck
            {
              OFFSET 5.0226 -0.0266342 0
              CHANNELS 3 Zrotation Xrotation Yrotation
              JOINT Head
              {
                OFFSET 6.69364 2.86102e-005 0
                CHANNELS 3 Zrotation Xrotation Yrotation
                End Site
                {
                  OFFSET 0 0 0
                }
              }
            }
          }
        }
      }
    }
  }
}
MOTION
Frames:	10
Frame Time:	0.0416667
-230.094 98.0122 -197.525 97.6797 -33.8487 96.0388 -174.586 12.6364 94.4439 -62.5826 9.46336 3.4592 62.8613 2.94149 5.1938 15.1437 -3.40136 -5.26171 174.653 4.25984 96.0277 -26.5741 -2.63985 2.80161 72.7867 -7.21 -3.20779 16.2429 2.14448 10.0635 0.0294183 8.42176 -90.5343 10.0292 -0.184427 -1.04596 -1.64214 -0.230296 -1.03684 -24.1738 0.138405 -1.05304 -4.16117 0.138434 -1.05303 90.694 -28.2743 -106.024 47.3757 6.36196 -3.44732 -5.15019 -39.7444 -5.36412 -12.8359 1.49145 -19.2331 -90.0818 -49.0445 78.3974 -20.8943 -8.58638 -12.7426 -11.2835 29.8014 0.0431437 4.31584 -0.794301 -20.8765 10.9921 -4.25626 -3.39678 2.38221 -3.33811 0.22609 
-226.091 98.5035 -193.622 97.2681 -36.1829 93.4443 -174.906 18.7741 89.8349 -54.1667 5.73905 1.563 65.0069 4.83972 5.61726 18.1429 -2.25179 -5.10095 174.349 0.09451 93.9992 -24.3674 -6.14608 1.39948 73.5592 -7.21899 -4.20485 17.2248 1.79911 10.0022 0.580335 8.3644 -90.1466 10.148 1.08958 -0.383457 -1.52256 1.07166 -0.431057 -24.0614 1.15446 -0.0382212 -4.04872 1.15445 -0.0382303 90.7616 -27.1155 -106.335 46.5264 5.41593 -8.03441 -5.12066 -39.2826 -5.34825 -15.0112 2.05676 -21.4311 -89.2517 -49.2267 79.6904 -19.2612 -8.72376 -7.5693 -10.9375 23.8626 -0.77735 6.06868 -1.14284 -19.8774 8.03756 -4.7952 -2.64132 3.06128 -4.17218 -0.788583 
-221.87 98.4643 -189.84 97.0804 -39.1417 92.3108 -175.495 21.3391 87.2032 -37.8179 4.20601 -0.238303 62.7274 3.80753 5.23124 23.1649 -1.91455 -1.42286 174.267 -3.55623 92.9316 -23.0281 -11.0272 0.19926 72.9457 -6.85977 -6.38349 20.8064 0.665283 9.39355 1.02114 8.44428 -89.9342 9.98681 2.06506 -0.0391881 -1.6825 2.06134 -0.130088 -24.2301 1.98134 0.58351 -4.21744 1.9813 0.583498 90.4923 -25.9781 -107.361 44.4782 4.61809 -14.4242 -5.37053 -43.0296 -5.49215 -18.9222 2.54694 -20.9711 -89.4537 -51.0489 79.7585 -15.9741 -9.32073 -3.48491 -10.2767 22.2501 -2.31128 5.07255 -1.10615 -21.3416 7.2103 -4.6731 -0.965299 2.72193 -4.449 -1.56729 
-217.181 97.5173 -185.781 96.7352 -41.7464 91.8506 -177.023 20.7101 86.2097 -16.684 3.54695 -1.02201 60.9889 3.15346 2.67902 21.4494 -3.36814 -0.0847772 173.906 -8.49893 91.9352 -21.0144 -12.0019 -0.610737 75.9836 -9.41658 -6.26191 22.7228 -0.238204 10.0391 1.28331 8.45626 -89.79 9.96081 2.6531 0.199479 -1.70743 2.65932 0.0824294 -24.262 2.47044 0.988109 -4.24933 2.47042 0.9881 90.0919 -25.4327 -108.441 42.0125 4.28907 -20.6914 -5.56415 -45.6563 -5.61325 -21.4253 2.56186 -19.1093 -89.3851 -52.2126 80.0907 -14.0635 -9.43486 0.382587 -10.3363 20.6103 -2.58293 4.43165 -1.0257 -21.6024 7.11973 -4.27902 0.473146 2.50912 -4.37761 -2.15477 
-212.169 96.0353 -181.329 97.0148 -44.7526 92.486 -177.511 21.9883 86.4576 -7.15916 2.99003 -2.11812 62.3654 2.9315 2.19055 23.052 -4.8404 4.38512 173.126 -12.7725 90.983 -21.4994 -15.1391 -1.15611 76.4365 -10.3255 -7.08419 26.05 -1.28427 9.51558 1.56451 8.47158 -89.74 9.92943 3.2363 0.252427 -1.73749 3.24427 0.10959 -24.3014 3.01068 1.21427 -4.28877 3.01068 1.21426 89.5698 -25.3889 -109.565 39.4742 4.57061 -25.7568 -5.56279 -45.6446 -5.61202 -21.7507 2.92184 -20.8031 -89.498 -53.4744 80.1722 -13.093 -10.1213 2.97721 -10.8087 19.3976 -1.37257 2.94907 -0.680299 -19.8679 7.05593 -3.83413 1.66722 2.66032 -4.19082 -2.30007 
-206.466 94.8324 -176.239 99.0454 -48.0272 94.2351 -176.265 21.3772 86.7824 -8.5615 2.72133 -2.89407 55.5997 -1.57105 0.0757272 20.0279 -5.01833 1.77101 170.702 -18.2739 87.7136 -21.4024 -19.2532 -1.53316 74.6492 -9.92408 -6.61657 32.9914 -4.0404 10.9615 1.82007 8.56496 -89.6789 9.7406 3.77344 0.33962 -1.92489 3.78473 0.172968 -24.4988 3.49671 1.45934 -4.48613 3.49671 1.45935 89.4505 -25.086 -109.959 38.4979 4.3519 -29.2942 -5.64583 -46.7256 -5.66687 -21.8134 3.23758 -22.4084 -89.6358 -55.4592 80.3534 -11.8072 -11.4657 4.27969 -11.0162 20.6089 -0.110253 1.63445 -0.386097 -18.7954 7.83299 -3.34292 2.35377 2.7338 -3.8711 -2.46711 
-200.209 94.588 -170.53 99.271 -50.815 92.6311 -175.652 24.4708 84.7158 -21.3563 7.79623 -2.94604 55.3497 -3.37301 -0.237094 12.3767 -9.52716 2.48165 168.172 -20.0113 82.8863 -24.0408 -22.87 -3.24959 69.144 -6.61673 -6.42492 40.3433 -6.58244 11.8124 1.97501 8.50076 -89.2892 9.85532 4.25892 1.06762 -1.80893 4.30176 0.878814 -24.3862 3.74097 2.29972 -4.37355 3.74097 2.29971 89.2702 -25.5516 -110.124 40.7634 2.57923 -30.0039 -5.36451 -42.9581 -5.48883 -23.0896 3.18212 -21.1459 -89.5322 -55.8139 80.566 -11.549 -13.363 4.82357 -10.4079 24.3214 -0.0170281 2.68863 -0.17705 -13.6143 9.5616 -3.28929 1.25656 1.25864 -3.60488 -3.36834 
-193.913 95.0637 -164.602 100.288 -51.9321 91.4855 -174.28 22.5787 82.2757 -30.099 8.60497 -3.98995 58.752 -1.11322 2.97934 18.9813 -3.87423 -1.34431 167.311 -17.6167 79.4259 -34.2347 -24.4441 -5.6945 60.8576 -0.25014 -3.51892 35.2819 -4.98904 12.122 1.95104 8.44552 -88.9575 9.95064 4.36206 1.7127 -1.71385 4.4332 1.51875 -24.284 3.64566 2.94551 -4.27129 3.64567 2.94551 89.6035 -25.8065 -109.306 44.4826 0.841752 -27.1214 -5.38931 -43.2869 -5.50328 -23.4634 3.9449 -24.5318 -89.737 -54.4756 80.0233 -12.7248 -14.7968 4.41177 -10.0266 21.2496 -0.0148161 0.426221 0.0232878 -14.5905 9.60374 -3.35252 -0.47398 0.792199 -3.26961 -3.40559 
-188.447 95.7797 -159.684 100.469 -53.192 90.7821 -173.708 18.3354 80.9387 -32.424 7.66739 -4.49461 64.7401 3.36251 4.3566 19.9802 -3.66939 -0.86975 168.938 -9.61954 77.8913 -49.0501 -25.9526 -6.97747 52.7914 5.05437 0.682486 21.8375 -0.125545 10.7817 1.74473 8.39347 -88.811 10.0495 4.01804 2.027 -1.6165 4.10333 1.84799 -24.1739 3.22327 3.14128 -4.16124 3.22327 3.14128 89.6014 -26.0984 -109.179 47.331 -0.249509 -24.6292 -5.76479 -48.167 -5.74513 -19.4603 3.34289 -25.4561 -89.5962 -53.3066 79.9981 -14.4251 -15.241 1.39201 -9.81685 21.9715 -0.0133844 2.22977 -0.0905336 -13.2242 10.4844 -2.78203 -1.70721 -1.40661 -2.36427 -3.33887 
-183.573 96.6629 -155.244 99.8484 -54.3348 90.8608 -174.899 13.7945 80.4844 -31.6077 4.51154 -3.68409 69.8613 6.65015 3.97282 19.0516 -4.34087 -0.448397 172.223 -1.00047 79.5529 -59.6631 -30.68 -7.78844 56.5331 2.03905 -4.93329 21.3491 -0.226083 11.6424 1.41728 8.37812 -88.9454 10.0891 3.30454 1.8175 -1.57871 3.38132 1.67019 -24.1265 2.6057 2.72675 -4.11381 2.60569 2.72674 89.6572 -25.8586 -109.17 49.4305 -0.372604 -21.2021 -6.12081 -52.0912 -5.99867 -20.4426 3.4087 -24.6817 -89.938 -52.7749 79.398 -15.4112 -14.4364 -4.36459 -10.1584 22.8008 -0.0138862 3.76965 -0.23728 -13.1109 9.78315 -1.35531 -1.90911 -0.500972 -0.949182 -2.70638 
